<svg width="28" height="28" viewBox="0 0 28 28" fill="none" xmlns="http://www.w3.org/2000/svg">
<rect width="28" height="28" rx="14" fill="#FDD8DF"/>
<path d="M13.9999 13.2826C13.0378 13.2826 12.2137 12.9396 11.5278 12.2536C10.8418 11.5676 10.4991 10.7439 10.4999 9.78256C10.5007 8.82122 10.8433 7.99678 11.5278 7.30922C12.2122 6.62167 13.0363 6.27984 13.9999 6.28372C14.9636 6.28761 15.7876 6.62984 16.4721 7.31039C17.1565 7.99095 17.4991 8.81539 17.4999 9.78372C17.5007 10.7521 17.1581 11.5757 16.4721 12.2547C15.7861 12.9337 14.962 13.2756 13.9999 13.2826ZM5.83325 21.7187V19.7984C5.83325 19.3169 5.97325 18.8666 6.25325 18.4474C6.53403 18.0274 6.91125 17.7015 7.38492 17.4697C8.48625 16.9416 9.58836 16.5457 10.6913 16.2821C11.7934 16.0176 12.8963 15.8854 13.9999 15.8854C15.1036 15.8854 16.2069 16.0176 17.3097 16.2821C18.4126 16.5465 19.514 16.9424 20.6137 17.4697C21.0882 17.7015 21.4654 18.0274 21.7454 18.4474C22.0262 18.8666 22.1666 19.3169 22.1666 19.7984V21.7187H5.83325Z" fill="#F43C60"/>
</svg>
