<svg width="29" height="28" viewBox="0 0 29 28" fill="none" xmlns="http://www.w3.org/2000/svg">
<path d="M14.2498 25.1732L11.2433 22.1667H4.9165V3.5H23.5832V22.1667H17.2563L14.2498 25.1732ZM6.08317 20.1075C7.13317 19.0769 8.3535 18.2649 9.74417 17.6715C11.1348 17.0781 12.6367 16.7817 14.2498 16.7825C15.8637 16.7825 17.366 17.0788 18.7567 17.6715C20.1473 18.2642 21.3673 19.0762 22.4165 20.1075V4.66667H6.08317V20.1075ZM14.2498 14.0898C15.2283 14.0898 16.0562 13.7511 16.7337 13.0737C17.4111 12.3962 17.7498 11.5679 17.7498 10.5887C17.7498 9.611 17.4111 8.78344 16.7337 8.106C16.0562 7.42856 15.2283 7.08983 14.2498 7.08983C13.2714 7.08983 12.4434 7.42856 11.766 8.106C11.0886 8.78344 10.7498 9.61139 10.7498 10.5898C10.7498 11.5683 11.0886 12.3962 11.766 13.0737C12.4434 13.7511 13.2714 14.0906 14.2498 14.0898ZM7.11567 21H21.384V20.7982C20.3581 19.8337 19.2408 19.1178 18.0322 18.6503C16.8235 18.1829 15.5627 17.9492 14.2498 17.9492C12.9665 17.9492 11.717 18.179 10.5013 18.6387C9.28489 19.0983 8.15634 19.803 7.11567 20.7527V21ZM14.2498 12.9232C13.6144 12.9232 13.0664 12.6933 12.606 12.2337C12.1463 11.7732 11.9165 11.2249 11.9165 10.5887C11.9165 9.954 12.1463 9.40644 12.606 8.946C13.0664 8.48633 13.6144 8.2565 14.2498 8.2565C14.8853 8.2565 15.4332 8.48633 15.8937 8.946C16.3533 9.40644 16.5832 9.95439 16.5832 10.5898C16.5832 11.2253 16.3533 11.7732 15.8937 12.2337C15.4332 12.6926 14.8853 12.9232 14.2498 12.9232Z" fill="#202020"/>
</svg>
