<svg width="24" height="24" viewBox="0 0 24 24" fill="none" xmlns="http://www.w3.org/2000/svg">
<path d="M22.5 9.18705C22.5016 9.90128 22.3616 10.6087 22.088 11.2685C21.8144 11.9283 21.4128 12.5273 20.9062 13.0308L12.5344 21.5264C12.4646 21.5973 12.3814 21.6536 12.2897 21.692C12.1979 21.7304 12.0994 21.7502 12 21.7502C11.9005 21.7502 11.8021 21.7304 11.7103 21.692C11.6186 21.6536 11.5354 21.5973 11.4656 21.5264L3.09374 13.0308C2.07307 12.0114 1.49917 10.6282 1.49829 9.18568C1.49741 7.74311 2.06963 6.35928 3.08905 5.33861C4.10848 4.31794 5.49161 3.74404 6.93418 3.74317C8.37674 3.74229 9.76057 4.3145 10.7812 5.33393L12 6.47299L13.2272 5.33018C13.9888 4.57229 14.958 4.05705 16.0122 3.84952C17.0665 3.64198 18.1586 3.75144 19.1507 4.16409C20.1428 4.57673 20.9904 5.27406 21.5865 6.16804C22.1826 7.06202 22.5005 8.11256 22.5 9.18705Z" fill="#F66380"/>
</svg>
