<svg width="48" height="48" viewBox="0 0 48 48" fill="none" xmlns="http://www.w3.org/2000/svg">
<rect width="48" height="48" rx="24" fill="#FEECEF"/>
<path d="M29.7834 28.3911L34 32.6076L32.6076 34L28.3911 29.7834C26.875 30.9964 24.9522 31.722 22.861 31.722C17.9697 31.722 14 27.7523 14 22.861C14 17.9697 17.9697 14 22.861 14C27.7523 14 31.722 17.9697 31.722 22.861C31.722 24.9522 30.9964 26.875 29.7834 28.3911ZM27.8081 27.6605C29.012 26.4198 29.7529 24.7273 29.7529 22.861C29.7529 19.0532 26.6688 15.9691 22.861 15.9691C19.0532 15.9691 15.9691 19.0532 15.9691 22.861C15.9691 26.6688 19.0532 29.7529 22.861 29.7529C24.7273 29.7529 26.4198 29.012 27.6605 27.8081L27.8081 27.6605Z" fill="#F43C60"/>
</svg>
