<svg width="25" height="24" viewBox="0 0 25 24" fill="none" xmlns="http://www.w3.org/2000/svg">
<path d="M22.678 4.17307L15.7 2.22119L8.70156 4.19257L2.19339 2.34635C2.05393 2.30678 1.9072 2.30009 1.76472 2.32681C1.62224 2.35353 1.48789 2.41292 1.37224 2.50032C1.25659 2.58773 1.16279 2.70076 1.0982 2.83054C1.03361 2.96032 0.999997 3.10331 1 3.24827V19.2139C1.00071 19.4585 1.08084 19.6964 1.22835 19.8915C1.37586 20.0867 1.58276 20.2287 1.81792 20.2962L8.69997 22.2485L15.7015 20.2763L22.31 22.1249C22.4494 22.1638 22.5958 22.17 22.738 22.1429C22.8801 22.1159 23.014 22.0563 23.1293 21.9688C23.2445 21.8813 23.3379 21.7684 23.4023 21.6388C23.4666 21.5092 23.5 21.3665 23.5 21.2218V5.25649C23.4994 5.0111 23.4188 4.77259 23.2705 4.5771C23.1222 4.3816 22.9142 4.23976 22.678 4.17307ZM7.89062 20.4595L2.5 18.9303V3.9925L7.89062 5.52175V20.4595ZM14.9507 18.9292L9.39062 20.4954V5.55682L14.9507 3.99063V18.9292ZM22 20.4803L16.4507 18.9283V3.98871L22 5.54078V20.4803Z" fill="black"/>
</svg>
