<svg width="40" height="40" viewBox="0 0 40 40" fill="none" xmlns="http://www.w3.org/2000/svg">
<path d="M25.7834 24.3911L30 28.6076L28.6076 30L24.3911 25.7834C22.875 26.9964 20.9522 27.722 18.861 27.722C13.9697 27.722 10 23.7523 10 18.861C10 13.9697 13.9697 10 18.861 10C23.7523 10 27.722 13.9697 27.722 18.861C27.722 20.9522 26.9964 22.875 25.7834 24.3911ZM23.8081 23.6605C25.012 22.4198 25.7529 20.7273 25.7529 18.861C25.7529 15.0532 22.6688 11.9691 18.861 11.9691C15.0532 11.9691 11.9691 15.0532 11.9691 18.861C11.9691 22.6688 15.0532 25.7529 18.861 25.7529C20.7273 25.7529 22.4198 25.012 23.6605 23.8081L23.8081 23.6605Z" fill="#43464B"/>
</svg>
