<svg width="26" height="24" viewBox="0 0 26 24" fill="none" xmlns="http://www.w3.org/2000/svg">
<path d="M19.2829 23.6673H5.89758V9.00063L14.2576 0.744629L14.8469 1.33396C14.9678 1.45574 15.07 1.6113 15.1536 1.80063C15.2371 1.98996 15.2785 2.16418 15.2776 2.3233V2.53396L13.9136 9.00063H23.1802C23.7376 9.00063 24.2354 9.22018 24.6736 9.6593C25.1118 10.0984 25.3318 10.5971 25.3336 11.1553V12.7953C25.3336 12.9171 25.3202 13.0495 25.2936 13.1926C25.2669 13.3357 25.2305 13.4682 25.1842 13.59L21.5442 22.222C21.3611 22.6317 21.0531 22.9753 20.6202 23.2526C20.1882 23.5291 19.7425 23.6673 19.2829 23.6673ZM7.23091 22.334H19.2829C19.4705 22.334 19.6625 22.2829 19.8589 22.1806C20.0562 22.0775 20.206 21.9064 20.3082 21.6673L24.0002 13.0006V11.1553C24.0002 10.9153 23.9234 10.7184 23.7696 10.5646C23.6158 10.4109 23.4194 10.334 23.1802 10.334H12.2562L13.8002 3.05263L7.23091 9.56996V22.334ZM5.89758 9.00063V10.334H1.33358V22.334H5.89758V23.6673H0.000244141V9.00063H5.89758Z" fill="black"/>
</svg>
