<svg width="252" height="140" viewBox="0 0 252 140" fill="none" xmlns="http://www.w3.org/2000/svg">
<rect width="252" height="140" rx="4" fill="#F7F7F7"/>
<path d="M86.7319 94.2834H84.4434V98.1964C84.4434 99.1474 85.2655 99.2357 86.7319 99.1474V102.154C82.3771 102.597 81.1107 101.292 81.1107 98.1964V94.2834H79.3333V91.0997H81.1107V88.9994L84.4434 88.0044V91.0997H86.7319V94.2834ZM92.1686 93.0674C92.6129 91.5861 94.1016 90.8786 95.5013 90.8786V94.6371C94.1238 94.4161 92.1686 94.9688 92.1686 97.1577V102.154H88.8358V91.0997H92.1686V93.0674ZM104.799 91.0997H108.132V102.154H104.799V101.115C104.066 101.955 102.977 102.464 101.488 102.464C98.5778 102.464 96.1783 99.921 96.1783 96.627C96.1783 93.3327 98.5778 90.7902 101.488 90.7902C102.977 90.7902 104.066 91.2987 104.799 92.1388V91.0997ZM102.155 99.3241C103.688 99.3241 104.799 98.2854 104.799 96.627C104.799 94.9688 103.688 93.9297 102.155 93.9297C100.622 93.9297 99.511 94.9688 99.511 96.627C99.511 98.2854 100.622 99.3241 102.155 99.3241ZM117.664 91.0997H121.353L117.242 102.154H113.465L109.355 91.0997H113.043L115.354 98.1081L117.664 91.0997ZM125.119 97.9535C125.541 99.1032 126.563 99.5014 127.785 99.5014C128.696 99.5014 129.473 99.1474 129.918 98.6609L132.584 100.187C131.495 101.69 129.851 102.464 127.74 102.464C123.941 102.464 121.586 99.921 121.586 96.627C121.586 93.3327 123.986 90.7902 127.496 90.7902C130.74 90.7902 133.139 93.2885 133.139 96.627C133.139 97.0915 133.095 97.5332 133.006 97.9535H125.119ZM125.052 95.4773H129.829C129.473 94.195 128.474 93.7307 127.474 93.7307C126.207 93.7307 125.363 94.3498 125.052 95.4773ZM135.03 102.154V86.0146H138.362V102.154H135.03ZM146.134 102.464C142.756 102.464 140.246 99.921 140.246 96.627C140.246 93.3327 142.756 90.7902 146.134 90.7902C148.289 90.7902 150.2 91.9178 151.155 93.6202L148.244 95.3004C147.867 94.5266 147.067 94.0623 146.089 94.0623C144.645 94.0623 143.579 95.1015 143.579 96.627C143.579 98.1522 144.645 99.1916 146.089 99.1916C147.067 99.1916 147.889 98.7271 148.244 97.9535L151.155 99.6118C150.2 101.336 148.311 102.464 146.134 102.464ZM159.781 91.0997H163.114V102.154H159.781V101.115C159.181 101.933 158.07 102.464 156.604 102.464C154.36 102.464 152.449 100.872 152.449 97.8872V91.0997H155.782V97.4007C155.782 98.7713 156.649 99.4124 157.715 99.4124C158.937 99.4124 159.781 98.705 159.781 97.1357V91.0997ZM172.068 94.2834H169.779V98.1964C169.779 99.1474 170.602 99.2357 172.068 99.1474V102.154C167.713 102.597 166.447 101.292 166.447 98.1964V94.2834H164.669V91.0997H166.447V88.9994L169.779 88.0044V91.0997H172.068V94.2834Z" fill="#E2E3E5"/>
<path d="M101.979 42.318L92.0126 52.5983C89.7741 54.9071 88.9298 58.2219 89.7929 61.313L92.4028 70.6602C93.4975 74.5808 97.0849 77.2939 101.174 77.2939H133.987C134.819 77.2939 135.647 77.1803 136.449 76.9564L154.573 71.89C158.183 70.8809 160.802 67.7727 161.17 64.0596L162.019 55.5126C162.443 51.2499 159.807 47.2748 155.703 45.9839L136.58 39.9699C135.692 39.6908 134.767 39.5488 133.837 39.5488H108.531C106.06 39.5488 103.695 40.5484 101.979 42.318Z" fill="#E2E3E5"/>
<path d="M120.189 48.2677C120.189 47.543 120.39 46.9995 120.79 46.6371C121.209 46.2567 121.728 46.0664 122.347 46.0664C122.984 46.0664 123.512 46.2567 123.931 46.6371C124.35 46.9995 124.559 47.543 124.559 48.2677V67.2913C124.559 68.016 124.35 68.5686 123.931 68.949C123.512 69.3295 122.984 69.5197 122.347 69.5197C121.728 69.5197 121.209 69.3295 120.79 68.949C120.39 68.5686 120.189 68.016 120.189 67.2913V48.2677ZM114.236 58.6219C114.108 58.6219 113.972 58.6039 113.826 58.5676C113.68 58.5314 113.544 58.4951 113.416 58.4589C113.781 58.9843 114.072 59.5822 114.29 60.2526C114.509 60.9229 114.627 61.6023 114.645 62.2908C114.682 63.396 114.482 64.2385 114.045 64.8182C113.608 65.3798 113.007 65.6607 112.242 65.6607C111.459 65.6607 110.858 65.3889 110.44 64.8454C110.021 64.3019 109.811 63.5953 109.811 62.7256C109.811 61.8741 109.893 61.1041 110.057 60.4156C110.239 59.7271 110.394 59.0749 110.521 58.4589C110.576 57.9878 110.449 57.6889 110.139 57.5621C109.793 57.4352 109.538 57.6074 109.374 58.0784C109.138 59.1655 108.901 60.1167 108.664 60.9319C108.428 61.7473 108.109 62.6622 107.709 63.6768C107.417 64.4196 106.998 64.9088 106.452 65.1443C105.924 65.3798 105.342 65.3889 104.704 65.1715C103.994 64.936 103.512 64.5374 103.257 63.9757C103.02 63.4141 103.011 62.7166 103.23 61.8831C103.448 61.1403 103.721 60.3432 104.049 59.4916C104.395 58.6219 104.713 57.8429 105.005 57.1544C105.296 56.4298 105.542 55.7594 105.742 55.1433C105.942 54.5273 106.124 53.9205 106.288 53.3225H105.961C105.159 53.3225 104.495 53.1232 103.967 52.7247C103.439 52.308 103.175 51.6467 103.175 50.7408C103.175 49.8349 103.439 49.1827 103.967 48.7841C104.495 48.3674 105.159 48.159 105.961 48.159H111.86C112.679 48.159 113.344 48.3674 113.853 48.7841C114.381 49.1827 114.645 49.8349 114.645 50.7408C114.645 51.6286 114.381 52.2808 113.853 52.6975C113.344 53.1142 112.679 53.3225 111.86 53.3225H110.795C110.667 54.174 110.521 54.8716 110.358 55.4151C110.194 55.9587 110.112 56.2304 110.112 56.2304C110.949 56.3391 111.678 56.6652 112.297 57.2088C112.206 56.9008 112.16 56.5928 112.16 56.2848C112.16 55.5057 112.351 54.8988 112.734 54.464C113.134 54.011 113.635 53.7846 114.236 53.7846C114.436 53.7846 114.618 53.7936 114.782 53.8117C114.964 53.8298 115.137 53.857 115.301 53.8932V48.5667C115.301 47.9144 115.501 47.4071 115.902 47.0448C116.302 46.6643 116.794 46.4741 117.376 46.4741C117.959 46.4741 118.451 46.6643 118.851 47.0448C119.27 47.4071 119.479 47.9144 119.479 48.5667V66.9108C119.479 67.5812 119.27 68.0975 118.851 68.4598C118.451 68.8403 117.959 69.0306 117.376 69.0306C116.794 69.0306 116.302 68.8403 115.902 68.4598C115.501 68.0975 115.301 67.5812 115.301 66.9108V58.4861C114.973 58.5767 114.618 58.6219 114.236 58.6219ZM131.034 51.692C130.251 51.692 129.614 51.5108 129.123 51.1484C128.649 50.7679 128.412 50.1701 128.412 49.3548C128.412 48.5395 128.649 47.9416 129.123 47.5611C129.614 47.1626 130.251 46.9633 131.034 46.9633H143.679C144.48 46.9633 145.117 47.1626 145.591 47.5611C146.083 47.9416 146.328 48.5395 146.328 49.3548C146.328 50.152 146.083 50.7408 145.591 51.1213C145.117 51.5017 144.48 51.692 143.679 51.692H140.702L139.555 53.4856L140.129 54.3281C140.802 53.7664 141.567 53.395 142.423 53.2138C143.297 53.0327 144.143 53.0961 144.963 53.4041C145.491 53.6034 145.901 53.9295 146.192 54.3824C146.483 54.8173 146.638 55.2974 146.656 55.8228C146.674 56.3482 146.529 56.8374 146.219 57.2903C145.927 57.7251 145.518 58.0059 144.99 58.1328C144.462 58.2415 143.907 58.2234 143.324 58.0784C142.741 57.9154 142.204 57.6617 141.713 57.3175C141.148 56.9008 140.629 56.5475 140.156 56.2576C139.683 55.9677 139.073 55.8228 138.326 55.8228C137.653 55.8228 137.079 55.8862 136.606 56.013C136.15 56.1398 135.723 56.312 135.322 56.5294C134.921 56.7468 134.475 56.9823 133.984 57.2359C133.492 57.4896 132.882 57.7433 132.154 57.9969C130.952 58.3955 130.015 58.3955 129.341 57.9969C128.667 57.5983 128.258 56.9914 128.112 56.1761C127.821 54.5998 128.768 53.5399 130.952 52.9964C131.735 52.8153 132.409 52.616 132.973 52.3986C133.556 52.1812 134.093 51.9456 134.585 51.692H131.034ZM126.473 61.3668C126.473 60.624 126.683 60.0442 127.102 59.6275C127.52 59.2108 128.13 59.0025 128.931 59.0025H146.465C147.266 59.0025 147.858 59.2108 148.24 59.6275C148.64 60.0442 148.841 60.624 148.841 61.3668C148.841 62.0915 148.64 62.6803 148.24 63.1333C147.858 63.5862 147.266 63.8127 146.465 63.8127H139.227C138.973 63.8127 138.809 63.9033 138.736 64.0844C138.663 64.2475 138.727 64.4015 138.927 64.5464C139.164 64.7276 139.428 64.9994 139.719 65.3617C140.029 65.706 140.183 66.2042 140.183 66.8564C140.183 67.6174 139.938 68.2605 139.446 68.786C138.954 69.3114 138.171 69.5741 137.097 69.5741C136.205 69.5741 135.468 69.3114 134.885 68.786C134.302 68.2787 134.011 67.6355 134.011 66.8564C134.011 66.331 134.093 65.9053 134.257 65.5791C134.439 65.253 134.639 64.9994 134.858 64.8182C135.094 64.6189 135.295 64.483 135.459 64.4105C135.641 64.3381 135.732 64.3019 135.732 64.3019L135.431 63.8127H128.877C128.094 63.8127 127.493 63.5862 127.074 63.1333C126.674 62.6803 126.473 62.0915 126.473 61.3668Z" fill="#F7F7F7"/>
<path d="M123.931 46.638L123.778 46.8053L123.782 46.8089L123.931 46.638ZM120.79 68.9499L120.633 69.1137L120.637 69.1172L120.79 68.9499ZM113.416 58.4597L113.479 58.242L112.869 58.0685L113.229 58.5884L113.416 58.4597ZM114.645 62.2916L114.418 62.2976L114.418 62.299L114.645 62.2916ZM114.045 64.8191L114.225 64.9577L114.227 64.955L114.045 64.8191ZM110.057 60.4165L109.837 60.3588L109.836 60.3643L110.057 60.4165ZM110.522 58.4597L110.744 58.5054L110.746 58.4957L110.748 58.4857L110.522 58.4597ZM110.139 57.5629L110.226 57.3534L110.218 57.3504L110.139 57.5629ZM109.374 58.0793L109.159 58.0052L109.155 58.018L109.152 58.0313L109.374 58.0793ZM106.452 65.1451L106.362 64.9373L106.359 64.9385L106.452 65.1451ZM104.704 65.1724L104.778 64.9581L104.776 64.9575L104.704 65.1724ZM103.257 63.9766L103.047 64.0642L103.05 64.0698L103.257 63.9766ZM103.23 61.884L103.011 61.8204L103.009 61.8268L103.23 61.884ZM104.049 59.4924L103.837 59.4091L103.836 59.4115L104.049 59.4924ZM105.005 57.1553L105.215 57.2432L105.216 57.2394L105.005 57.1553ZM106.288 53.3234L106.508 53.383L106.586 53.0969H106.288V53.3234ZM103.967 52.7255L103.826 52.903L103.829 52.906L103.967 52.7255ZM103.967 48.7849L104.105 48.9654L104.108 48.9623L103.967 48.7849ZM113.853 48.7849L113.709 48.9601L113.716 48.9653L113.853 48.7849ZM113.853 52.6984L113.712 52.5209L113.709 52.5234L113.853 52.6984ZM110.795 53.3234V53.0969H110.598L110.57 53.2901L110.795 53.3234ZM110.112 56.2313L109.894 56.1662L109.817 56.4214L110.082 56.4559L110.112 56.2313ZM112.297 57.2096L112.146 57.3794L112.738 57.8988L112.515 57.1457L112.297 57.2096ZM114.782 53.8126L114.757 54.0376L114.759 54.0379L114.782 53.8126ZM115.301 53.8941L115.252 54.1152L115.528 54.1765V53.8941H115.301ZM115.902 47.0456L116.055 47.2132L116.059 47.2095L115.902 47.0456ZM118.851 47.0456L118.694 47.2095L118.698 47.2131L118.702 47.2166L118.851 47.0456ZM118.851 68.4607L118.702 68.2898L118.698 68.2932L118.694 68.2969L118.851 68.4607ZM115.902 68.4607L116.059 68.2968L116.055 68.2931L115.902 68.4607ZM115.301 58.487H115.528V58.189L115.24 58.2687L115.301 58.487ZM120.417 48.2686C120.417 47.5847 120.605 47.1116 120.943 46.8056L120.637 46.4704C120.174 46.889 119.962 47.5031 119.962 48.2686H120.417ZM120.943 46.8056C121.316 46.4668 121.779 46.2938 122.347 46.2938V45.8408C121.677 45.8408 121.102 46.0482 120.637 46.4704L120.943 46.8056ZM122.347 46.2938C122.935 46.2938 123.406 46.4677 123.778 46.8053L124.085 46.4708C123.619 46.0474 123.033 45.8408 122.347 45.8408V46.2938ZM123.782 46.8089C124.136 47.1157 124.332 47.5877 124.332 48.2686H124.787C124.787 47.5001 124.563 46.8849 124.08 46.4671L123.782 46.8089ZM124.332 48.2686V67.2921H124.787V48.2686H124.332ZM124.332 67.2921C124.332 67.9724 124.137 68.4565 123.778 68.7826L124.085 69.1172C124.563 68.6823 124.787 68.0613 124.787 67.2921H124.332ZM123.778 68.7826C123.406 69.1202 122.935 69.2941 122.347 69.2941V69.747C123.033 69.747 123.619 69.5405 124.085 69.1172L123.778 68.7826ZM122.347 69.2941C121.779 69.2941 121.317 69.1214 120.944 68.7826L120.637 69.1172C121.102 69.5393 121.677 69.747 122.347 69.747V69.2941ZM120.947 68.7861C120.605 68.4606 120.417 67.9753 120.417 67.2921H119.962C119.962 68.0583 120.175 68.6782 120.633 69.1137L120.947 68.7861ZM120.417 67.2921V48.2686H119.962V67.2921H120.417ZM114.236 58.3963C114.13 58.3963 114.012 58.3813 113.881 58.3487L113.771 58.7882C113.932 58.8281 114.087 58.8493 114.236 58.8493V58.3963ZM113.881 58.3487C113.738 58.3131 113.604 58.2775 113.479 58.242L113.354 58.6775C113.484 58.7145 113.623 58.7514 113.771 58.7882L113.881 58.3487ZM113.229 58.5884C113.58 59.0939 113.862 59.6716 114.074 60.3233L114.507 60.1835C114.282 59.4944 113.982 58.8764 113.604 58.3312L113.229 58.5884ZM114.074 60.3233C114.286 60.9735 114.4 61.6313 114.418 62.2976L114.873 62.2857C114.854 61.575 114.732 60.8741 114.507 60.1835L114.074 60.3233ZM114.418 62.299C114.454 63.3785 114.256 64.1614 113.863 64.6832L114.227 64.955C114.707 64.3172 114.91 63.4151 114.873 62.2842L114.418 62.299ZM113.865 64.6804C113.474 65.1822 112.942 65.435 112.242 65.435V65.888C113.071 65.888 113.741 65.5791 114.225 64.9577L113.865 64.6804ZM112.242 65.435C111.519 65.435 110.99 65.1879 110.62 64.7084L110.259 64.9841C110.727 65.5917 111.4 65.888 112.242 65.888V65.435ZM110.62 64.7084C110.239 64.214 110.039 63.5599 110.039 62.7265H109.584C109.584 63.6324 109.802 64.3914 110.259 64.9841L110.62 64.7084ZM110.039 62.7265C110.039 61.8891 110.12 61.137 110.279 60.4687L109.836 60.3643C109.667 61.0729 109.584 61.8608 109.584 62.7265H110.039ZM110.277 60.4741C110.46 59.7821 110.616 59.1259 110.744 58.5054L110.299 58.4141C110.172 59.0256 110.018 59.6738 109.837 60.3588L110.277 60.4741ZM110.748 58.4857C110.777 58.228 110.761 57.9922 110.676 57.7938C110.589 57.588 110.434 57.4388 110.226 57.3534L110.053 57.7724C110.154 57.8137 110.218 57.8776 110.257 57.9707C110.3 58.0712 110.32 58.2204 110.295 58.4338L110.748 58.4857ZM110.218 57.3504C109.991 57.2674 109.761 57.2741 109.561 57.4095C109.374 57.5354 109.248 57.7501 109.159 58.0052L109.59 58.1533C109.665 57.9374 109.748 57.8305 109.816 57.7843C109.871 57.7476 109.941 57.7316 110.061 57.7754L110.218 57.3504ZM109.152 58.0313C108.916 59.1148 108.681 60.0608 108.446 60.87L108.883 60.9957C109.122 60.1742 109.359 59.2179 109.597 58.1272L109.152 58.0313ZM108.446 60.87C108.211 61.6769 107.895 62.585 107.497 63.5948L107.92 63.7605C108.323 62.7411 108.644 61.8193 108.883 60.9957L108.446 60.87ZM107.497 63.5948C107.22 64.3014 106.835 64.7333 106.362 64.9373L106.543 65.3529C107.162 65.086 107.615 64.5394 107.92 63.7605L107.497 63.5948ZM106.359 64.9385C105.892 65.1467 105.37 65.1601 104.778 64.9581L104.631 65.3866C105.313 65.6193 105.956 65.6147 106.545 65.3518L106.359 64.9385ZM104.776 64.9575C104.113 64.7374 103.688 64.3757 103.464 63.8834L103.05 64.0698C103.336 64.7008 103.876 65.1362 104.632 65.3872L104.776 64.9575ZM103.467 63.889C103.256 63.3888 103.239 62.7459 103.45 61.9411L103.009 61.8268C102.783 62.6889 102.784 63.4411 103.047 64.0642L103.467 63.889ZM103.448 61.9476C103.665 61.2116 103.936 60.4203 104.261 59.5734L103.836 59.4115C103.507 60.2678 103.232 61.0708 103.011 61.8204L103.448 61.9476ZM104.261 59.5758C104.606 58.7073 104.924 57.9298 105.215 57.2432L104.795 57.0674C104.503 57.7577 104.184 58.5383 103.837 59.4091L104.261 59.5758ZM105.216 57.2394C105.509 56.5109 105.757 55.8357 105.959 55.214L105.526 55.0745C105.327 55.6848 105.083 56.3503 104.793 57.0712L105.216 57.2394ZM105.959 55.214C106.16 54.5947 106.343 53.9844 106.508 53.383L106.069 53.2638C105.906 53.8582 105.725 54.4617 105.526 55.0745L105.959 55.214ZM106.288 53.0969H105.961V53.5499H106.288V53.0969ZM105.961 53.0969C105.199 53.0969 104.585 52.908 104.105 52.5451L103.829 52.906C104.405 53.3403 105.121 53.5499 105.961 53.5499V53.0969ZM104.108 52.5481C103.652 52.1882 103.403 51.6043 103.403 50.7417H102.947C102.947 51.6907 103.226 52.4294 103.826 52.903L104.108 52.5481ZM103.403 50.7417C103.403 49.8782 103.653 49.3065 104.105 48.9654L103.829 48.6045C103.225 49.0606 102.947 49.7933 102.947 50.7417H103.403ZM104.108 48.9623C104.589 48.5831 105.201 48.3864 105.961 48.3864V47.9334C105.118 47.9334 104.401 48.1533 103.826 48.6075L104.108 48.9623ZM105.961 48.3864H111.86V47.9334H105.961V48.3864ZM111.86 48.3864C112.64 48.3864 113.249 48.5841 113.709 48.9601L113.998 48.6099C113.438 48.1525 112.719 47.9334 111.86 47.9334V48.3864ZM113.716 48.9653C114.168 49.3065 114.418 49.8782 114.418 50.7417H114.873C114.873 49.7933 114.595 49.0606 113.991 48.6045L113.716 48.9653ZM114.418 50.7417C114.418 51.5843 114.169 52.1602 113.712 52.5209L113.995 52.8758C114.594 52.4031 114.873 51.6744 114.873 50.7417H114.418ZM113.709 52.5234C113.249 52.8993 112.64 53.0969 111.86 53.0969V53.5499C112.719 53.5499 113.438 53.3308 113.998 52.8734L113.709 52.5234ZM111.86 53.0969H110.795V53.5499H111.86V53.0969ZM110.57 53.2901C110.443 54.1357 110.299 54.8216 110.14 55.3509L110.576 55.4811C110.744 54.9233 110.891 54.2141 111.02 53.3568L110.57 53.2901ZM110.14 55.3509C110.135 55.3659 110.14 55.3487 110.136 55.3636C110.136 55.3647 110.135 55.3657 110.135 55.3667C110.135 55.3678 110.134 55.3689 110.134 55.3699C110.134 55.371 110.133 55.372 110.133 55.373C110.133 55.3741 110.132 55.3752 110.132 55.3762C110.132 55.3773 110.131 55.3783 110.131 55.3793C110.131 55.3804 110.131 55.3814 110.13 55.3825C110.13 55.3835 110.13 55.3845 110.129 55.3856C110.129 55.3866 110.129 55.3877 110.128 55.3887C110.128 55.3897 110.128 55.3908 110.127 55.3918C110.127 55.3928 110.127 55.3939 110.126 55.3949C110.123 55.4056 110.128 55.3903 110.125 55.4011C110.123 55.405 110.118 55.4218 110.117 55.4256C110.111 55.4459 110.116 55.4294 110.11 55.4496C110.109 55.452 110.109 55.4533 110.108 55.4556C110.108 55.4566 110.108 55.4576 110.107 55.4586C110.107 55.4596 110.107 55.4605 110.106 55.4615C110.104 55.4707 110.106 55.4642 110.103 55.4733C110.101 55.4784 110.101 55.48 110.099 55.485C110.096 55.496 110.099 55.4857 110.096 55.4966C110.093 55.5054 110.095 55.4994 110.092 55.5081C110.088 55.5211 110.094 55.5008 110.091 55.5138C110.09 55.5159 110.09 55.5174 110.089 55.5195C110.089 55.5204 110.088 55.5214 110.088 55.5223C110.088 55.5233 110.087 55.5243 110.087 55.5252C110.085 55.534 110.088 55.522 110.085 55.5308C110.085 55.5317 110.085 55.5327 110.085 55.5336C110.084 55.5345 110.084 55.5355 110.084 55.5364C110.083 55.5398 110.083 55.5387 110.082 55.542C110.074 55.5701 110.077 55.5582 110.069 55.5858C110.069 55.5867 110.068 55.5876 110.068 55.5885C110.068 55.5893 110.068 55.5903 110.067 55.5912C110.067 55.5925 110.066 55.5951 110.066 55.5965C110.065 55.5998 110.065 55.5984 110.064 55.6018C110.064 55.6027 110.064 55.6036 110.063 55.6044C110.063 55.6053 110.063 55.6062 110.062 55.6071C110.06 55.6139 110.061 55.6108 110.059 55.6176C110.057 55.6266 110.059 55.619 110.056 55.628C110.052 55.6418 110.048 55.6553 110.044 55.6686C110.043 55.6722 110.033 55.7045 110.032 55.7076C110.027 55.7233 110.025 55.7298 110.021 55.745C110.018 55.7536 110.013 55.7729 110.01 55.7808C110.009 55.7849 110.006 55.7943 110.005 55.7982C110 55.8144 110.008 55.7862 110.004 55.8025C110.001 55.8101 110.005 55.799 110.002 55.8067C109.999 55.8177 110.003 55.8042 110 55.8151C109.999 55.8182 109.999 55.8162 109.999 55.8192C109.997 55.8235 109.999 55.8192 109.997 55.8234C109.996 55.8283 109.996 55.8267 109.995 55.8316C109.994 55.8355 109.995 55.8318 109.994 55.8357C109.993 55.8386 109.993 55.8368 109.992 55.8398C109.991 55.8452 109.993 55.8383 109.991 55.8437C109.991 55.8451 109.99 55.8463 109.99 55.8477C109.98 55.8817 109.981 55.8765 109.972 55.9082C109.969 55.9178 109.97 55.913 109.967 55.9224C109.965 55.931 109.966 55.9276 109.963 55.9361C109.96 55.9477 109.966 55.9279 109.962 55.9395C109.962 55.9416 109.962 55.9408 109.961 55.9428C109.96 55.9485 109.961 55.9438 109.959 55.9495C109.955 55.9632 109.959 55.9488 109.955 55.9624C109.954 55.966 109.949 55.984 109.948 55.9871C109.946 55.994 109.948 55.986 109.946 55.993C109.946 55.9935 109.946 55.994 109.946 55.9945C109.946 55.9949 109.945 55.9955 109.945 55.9959C109.945 55.9964 109.945 55.9969 109.945 55.9973C109.945 55.9979 109.944 55.9983 109.944 55.9988C109.942 56.0066 109.945 55.9968 109.943 56.0046C109.938 56.02 109.946 55.9947 109.941 56.0101C109.939 56.0175 109.941 56.0084 109.939 56.0157C109.938 56.0202 109.939 56.0166 109.938 56.0211C109.937 56.0242 109.937 56.0233 109.936 56.0264C109.935 56.0289 109.935 56.0292 109.935 56.0316C109.927 56.0551 109.935 56.0287 109.928 56.0516C109.924 56.0674 109.93 56.0452 109.926 56.0609C109.922 56.0725 109.926 56.0584 109.923 56.0699C109.923 56.0704 109.92 56.078 109.92 56.0784C109.918 56.0867 109.92 56.0785 109.918 56.0866C109.916 56.0934 109.915 56.0954 109.913 56.1017C109.91 56.1123 109.912 56.1052 109.909 56.1152C109.909 56.1155 109.909 56.1158 109.909 56.116C109.909 56.1163 109.909 56.1166 109.909 56.1169C109.909 56.1171 109.908 56.1181 109.908 56.1184C109.908 56.1186 109.908 56.1189 109.908 56.1191C109.908 56.1194 109.908 56.1197 109.908 56.1199C109.908 56.1205 109.908 56.1208 109.907 56.1214C109.906 56.1248 109.908 56.121 109.906 56.1243C109.906 56.1257 109.906 56.1259 109.906 56.1272C109.905 56.1283 109.906 56.1275 109.905 56.1286C109.905 56.1288 109.905 56.129 109.905 56.1293C109.905 56.1295 109.905 56.1297 109.905 56.1299C109.904 56.1329 109.905 56.1283 109.904 56.1313C109.904 56.1313 109.904 56.1325 109.904 56.1326C109.901 56.1414 109.905 56.1289 109.903 56.1375C109.902 56.1391 109.902 56.1384 109.902 56.1399C109.902 56.141 109.902 56.14 109.902 56.141C109.901 56.1438 109.902 56.1393 109.901 56.1421C109.899 56.1482 109.902 56.1404 109.9 56.1463C109.897 56.1564 109.901 56.1439 109.898 56.1535C109.894 56.1668 109.9 56.1462 109.896 56.159C109.892 56.1736 109.9 56.1469 109.895 56.1612C109.894 56.1644 109.896 56.16 109.895 56.163C109.895 56.1634 109.895 56.1641 109.894 56.1644C109.894 56.165 109.894 56.165 109.894 56.1654C109.894 56.1655 109.894 56.1653 109.894 56.1654C109.894 56.1656 109.894 56.166 109.894 56.1662C109.894 56.1664 109.894 56.1661 109.894 56.1662C109.894 56.1662 109.894 56.1662 110.112 56.2313C110.33 56.2963 110.33 56.2963 110.33 56.2963C110.33 56.2967 110.33 56.296 110.33 56.2963C110.33 56.2962 110.33 56.2958 110.33 56.2956C110.33 56.2952 110.33 56.2951 110.33 56.2946C110.331 56.2918 110.33 56.2961 110.331 56.2932C110.331 56.2928 110.331 56.2927 110.331 56.2923C110.331 56.2915 110.331 56.2922 110.331 56.2914C110.332 56.291 110.332 56.2908 110.332 56.2904C110.332 56.2898 110.332 56.2897 110.332 56.2892C110.332 56.2885 110.333 56.2848 110.334 56.2836C110.334 56.2815 110.335 56.2791 110.336 56.2765C110.337 56.2728 110.336 56.276 110.337 56.2723C110.338 56.2695 110.337 56.274 110.337 56.2711C110.338 56.2706 110.338 56.2706 110.338 56.27C110.339 56.2676 110.338 56.2702 110.339 56.2677C110.341 56.2593 110.337 56.2737 110.339 56.2653C110.339 56.2646 110.339 56.2646 110.34 56.264C110.34 56.2612 110.339 56.2656 110.34 56.2627C110.342 56.2578 110.339 56.2651 110.341 56.2601C110.342 56.257 110.341 56.2605 110.342 56.2574C110.342 56.2571 110.342 56.2569 110.342 56.2567C110.342 56.2564 110.342 56.2562 110.342 56.2559C110.342 56.2556 110.342 56.2548 110.342 56.2545C110.344 56.2512 110.342 56.255 110.343 56.2516C110.345 56.245 110.343 56.2522 110.345 56.2454C110.351 56.2261 110.343 56.2517 110.349 56.2318C110.351 56.2265 110.35 56.23 110.352 56.2245C110.352 56.2227 110.352 56.2225 110.353 56.2207C110.357 56.2063 110.35 56.2311 110.354 56.2168C110.356 56.2101 110.353 56.2194 110.355 56.2127C110.356 56.2114 110.356 56.2099 110.356 56.2086C110.356 56.2083 110.357 56.2079 110.357 56.2075C110.357 56.2072 110.357 56.2068 110.357 56.2065C110.357 56.2061 110.357 56.2058 110.357 56.2054C110.357 56.2051 110.358 56.2047 110.358 56.2044C110.358 56.2025 110.358 56.202 110.359 56.2C110.363 56.185 110.36 56.1972 110.364 56.1817C110.371 56.1591 110.369 56.1651 110.377 56.1403C110.384 56.1155 110.383 56.1195 110.391 56.0926C110.395 56.0798 110.403 56.0532 110.408 56.0384C110.409 56.0353 110.409 56.0343 110.41 56.0312C110.411 56.0282 110.41 56.0305 110.411 56.0275C110.411 56.0265 110.412 56.0249 110.412 56.0238C110.414 56.0168 110.412 56.0235 110.414 56.0164C110.417 56.0082 110.413 56.021 110.415 56.0127C110.416 56.0121 110.416 56.0114 110.416 56.0109C110.416 56.0102 110.416 56.0096 110.417 56.009C110.423 55.9871 110.415 56.0155 110.421 55.9936C110.424 55.9857 110.421 55.9937 110.423 55.9858C110.426 55.9792 110.424 55.9845 110.426 55.9779C110.429 55.9679 110.425 55.9799 110.428 55.9699C110.431 55.9618 110.428 55.9699 110.431 55.9617C110.435 55.9481 110.429 55.9673 110.433 55.9536C110.433 55.9528 110.434 55.9522 110.434 55.9515C110.434 55.9508 110.434 55.9501 110.434 55.9494C110.437 55.9415 110.433 55.9531 110.436 55.9452C110.438 55.9373 110.436 55.9449 110.438 55.9368C110.439 55.9362 110.439 55.9354 110.439 55.9347C110.439 55.934 110.439 55.9333 110.44 55.9326C110.44 55.9319 110.44 55.9312 110.44 55.9304C110.44 55.9297 110.441 55.929 110.441 55.9283C110.442 55.9245 110.445 55.915 110.446 55.911C110.446 55.9104 110.457 55.8763 110.457 55.8752C110.458 55.87 110.457 55.8758 110.458 55.8706C110.461 55.8605 110.457 55.8761 110.46 55.866C110.462 55.8588 110.46 55.8639 110.462 55.8566C110.467 55.8416 110.464 55.853 110.468 55.8377C110.468 55.837 110.469 55.8362 110.469 55.8353C110.469 55.8346 110.469 55.8338 110.47 55.833C110.471 55.8291 110.47 55.832 110.471 55.8281C110.472 55.8244 110.473 55.8223 110.474 55.8184C110.476 55.8132 110.474 55.8188 110.475 55.8136C110.476 55.8127 110.476 55.812 110.476 55.8111C110.476 55.8103 110.477 55.8095 110.477 55.8086C110.48 55.7969 110.476 55.8105 110.48 55.7988C110.484 55.7864 110.482 55.7912 110.486 55.7786C110.489 55.7683 110.486 55.7788 110.489 55.7684C110.489 55.768 110.49 55.7638 110.491 55.7633C110.492 55.7577 110.49 55.7637 110.492 55.7582C110.496 55.7466 110.492 55.7593 110.495 55.7477C110.501 55.7297 110.493 55.7553 110.498 55.7373C110.499 55.7363 110.499 55.7355 110.499 55.7346C110.5 55.7337 110.5 55.7328 110.5 55.7319C110.5 55.7311 110.501 55.7302 110.501 55.7293C110.501 55.7284 110.501 55.7275 110.502 55.7267C110.502 55.7252 110.503 55.7227 110.503 55.7213C110.506 55.7116 110.502 55.7256 110.505 55.7159C110.505 55.7154 110.508 55.7057 110.508 55.7052C110.508 55.7048 110.511 55.6946 110.511 55.6943C110.514 55.687 110.516 55.6796 110.518 55.6722C110.52 55.6667 110.52 55.6665 110.521 55.6609C110.522 55.66 110.522 55.6591 110.522 55.6581C110.523 55.6572 110.523 55.6563 110.523 55.6553C110.528 55.6397 110.52 55.6653 110.525 55.6497C110.526 55.6464 110.526 55.6472 110.527 55.644C110.529 55.6369 110.526 55.6453 110.528 55.6383C110.532 55.6259 110.528 55.6392 110.532 55.6268C110.532 55.6253 110.535 55.6167 110.535 55.6152C110.539 55.6026 110.535 55.6161 110.539 55.6035C110.539 55.6025 110.539 55.6015 110.54 55.6005C110.54 55.5995 110.54 55.5986 110.541 55.5976C110.541 55.5966 110.541 55.5956 110.541 55.5947C110.542 55.5936 110.542 55.5927 110.542 55.5917C110.543 55.5907 110.543 55.5897 110.543 55.5887C110.544 55.5877 110.544 55.5867 110.544 55.5858C110.545 55.5834 110.545 55.5821 110.546 55.5798C110.546 55.5788 110.547 55.5778 110.547 55.5768C110.547 55.5758 110.547 55.5748 110.548 55.5738C110.548 55.5728 110.548 55.5718 110.549 55.5708C110.549 55.5698 110.549 55.5688 110.55 55.5678C110.55 55.5654 110.551 55.5641 110.551 55.5617C110.552 55.5608 110.553 55.5567 110.553 55.5557C110.556 55.5456 110.558 55.5414 110.561 55.5312C110.561 55.5298 110.575 55.483 110.576 55.4811L110.14 55.3509ZM110.082 56.4559C110.876 56.5589 111.562 56.8665 112.146 57.3794L112.447 57.0398C111.793 56.4657 111.023 56.1211 110.141 56.0067L110.082 56.4559ZM112.515 57.1457C112.43 56.8576 112.388 56.5711 112.388 56.2856H111.933C111.933 56.6162 111.981 56.9457 112.078 57.2736L112.515 57.1457ZM112.388 56.2856C112.388 55.5421 112.57 54.995 112.905 54.6139L112.563 54.3152C112.133 54.8038 111.933 55.471 111.933 56.2856H112.388ZM112.905 54.6139C113.263 54.2094 113.701 54.0119 114.236 54.0119V53.5589C113.569 53.5589 113.006 53.8139 112.563 54.3152L112.905 54.6139ZM114.236 54.0119C114.429 54.0119 114.603 54.0206 114.757 54.0376L114.807 53.5875C114.633 53.5683 114.443 53.5589 114.236 53.5589V54.0119ZM114.759 54.0379C114.933 54.0553 115.097 54.081 115.252 54.1152L115.35 53.673C115.177 53.6347 114.995 53.6061 114.805 53.5872L114.759 54.0379ZM115.528 53.8941V48.5675H115.073V53.8941H115.528ZM115.528 48.5675C115.528 47.9645 115.712 47.5237 116.055 47.2132L115.749 46.8781C115.291 47.2922 115.073 47.8661 115.073 48.5675H115.528ZM116.059 47.2095C116.415 46.8714 116.849 46.7014 117.376 46.7014V46.2484C116.739 46.2484 116.19 46.4589 115.745 46.8818L116.059 47.2095ZM117.376 46.7014C117.904 46.7014 118.338 46.8714 118.694 47.2095L119.008 46.8818C118.563 46.4589 118.014 46.2484 117.376 46.2484V46.7014ZM118.702 47.2166C119.062 47.528 119.252 47.9678 119.252 48.5675H119.707C119.707 47.8628 119.478 47.288 119.001 46.8747L118.702 47.2166ZM119.252 48.5675V66.9117H119.707V48.5675H119.252ZM119.252 66.9117C119.252 67.5317 119.06 67.9796 118.702 68.2898L119.001 68.6316C119.48 68.2171 119.707 67.6322 119.707 66.9117H119.252ZM118.694 68.2969C118.338 68.6349 117.904 68.805 117.376 68.805V69.2578C118.014 69.2578 118.563 69.0475 119.008 68.6245L118.694 68.2969ZM117.376 68.805C116.849 68.805 116.415 68.6348 116.059 68.2968L115.745 68.6245C116.19 69.0475 116.739 69.2578 117.376 69.2578V68.805ZM116.055 68.2931C115.713 67.9838 115.528 67.5349 115.528 66.9117H115.073C115.073 67.629 115.289 68.2129 115.749 68.6283L116.055 68.2931ZM115.528 66.9117V58.487H115.073V66.9117H115.528ZM115.24 58.2687C114.934 58.3532 114.6 58.3963 114.236 58.3963V58.8493C114.636 58.8493 115.012 58.8019 115.362 58.7052L115.24 58.2687ZM129.123 51.1493L128.98 51.3255L128.983 51.3285L128.987 51.3313L129.123 51.1493ZM129.123 47.562L129.266 47.7382L129.266 47.7376L129.123 47.562ZM145.591 47.562L145.444 47.7348L145.448 47.7379L145.451 47.7408L145.591 47.562ZM145.591 51.1221L145.451 50.9433L145.448 50.9459L145.591 51.1221ZM140.702 51.6928V51.4663H140.577L140.51 51.5712L140.702 51.6928ZM139.555 53.4865L139.363 53.3649L139.283 53.4903L139.367 53.6135L139.555 53.4865ZM140.129 54.3289L139.94 54.456L140.082 54.6636L140.275 54.5025L140.129 54.3289ZM142.423 53.2147L142.376 52.993L142.376 52.9932L142.423 53.2147ZM144.963 53.405L145.044 53.1932L145.043 53.1931L144.963 53.405ZM146.192 54.3833L146 54.5054L146.002 54.5089L146.192 54.3833ZM146.219 57.2912L146.031 57.1638L146.03 57.1655L146.219 57.2912ZM144.99 58.1337L145.036 58.3556L145.044 58.3538L144.99 58.1337ZM143.324 58.0793L143.262 58.2974L143.269 58.299L143.324 58.0793ZM141.713 57.3183L141.577 57.5003L141.582 57.5036L141.713 57.3183ZM136.606 56.0138L136.547 55.7952L136.544 55.7958L136.606 56.0138ZM132.154 57.9978L132.226 58.2126L132.229 58.2115L132.154 57.9978ZM128.112 56.177L128.336 56.1373L128.336 56.136L128.112 56.177ZM130.952 52.9973L130.901 52.7767L130.897 52.7776L130.952 52.9973ZM132.973 52.3994L132.893 52.1873L132.891 52.1882L132.973 52.3994ZM134.585 51.6928L134.689 51.8939L134.585 51.4663V51.6928ZM148.24 59.6283L148.072 59.7811L148.076 59.7849L148.24 59.6283ZM148.24 63.1341L148.069 62.9845L148.066 62.9884L148.24 63.1341ZM138.736 64.0853L138.944 64.1773L138.947 64.1694L138.736 64.0853ZM138.927 64.5473L139.066 64.3677L139.061 64.3642L138.927 64.5473ZM139.719 65.3626L139.541 65.504L139.545 65.5089L139.55 65.5136L139.719 65.3626ZM134.885 68.7868L135.038 68.619L135.035 68.6164L134.885 68.7868ZM134.257 65.58L134.058 65.47L134.056 65.4743L134.053 65.4787L134.257 65.58ZM134.858 64.8191L135.004 64.993L135.005 64.9919L134.858 64.8191ZM135.459 64.4114L135.374 64.201L135.366 64.2044L135.459 64.4114ZM135.732 64.3027L135.816 64.513L136.067 64.4134L135.926 64.1846L135.732 64.3027ZM135.431 63.8135L135.626 63.6954L135.559 63.5871H135.431V63.8135ZM127.074 63.1341L126.903 63.2837L126.907 63.2874L127.074 63.1341ZM131.034 51.4663C130.286 51.4663 129.701 51.2936 129.258 50.9673L128.987 51.3313C129.528 51.7297 130.216 51.9193 131.034 51.9193V51.4663ZM129.266 50.9731C128.863 50.6493 128.64 50.1278 128.64 49.3557H128.185C128.185 50.2141 128.436 50.8883 128.98 51.3255L129.266 50.9731ZM128.64 49.3557C128.64 48.5835 128.863 48.062 129.266 47.7382L128.98 47.3858C128.436 47.823 128.185 48.4972 128.185 49.3557H128.64ZM129.266 47.7376C129.709 47.3791 130.291 47.1906 131.034 47.1906V46.7376C130.212 46.7376 129.52 46.9478 128.979 47.3864L129.266 47.7376ZM131.034 47.1906H143.679V46.7376H131.034V47.1906ZM143.679 47.1906C144.442 47.1906 145.023 47.3799 145.444 47.7348L145.738 47.3891C145.213 46.9468 144.518 46.7376 143.679 46.7376V47.1906ZM145.451 47.7408C145.871 48.0655 146.1 48.5864 146.1 49.3557H146.556C146.556 48.4943 146.294 47.8194 145.731 47.3832L145.451 47.7408ZM146.1 49.3557C146.1 50.1047 145.872 50.6176 145.451 50.9433L145.731 51.3009C146.293 50.8657 146.556 50.2009 146.556 49.3557H146.1ZM145.448 50.9459C145.026 51.2848 144.445 51.4663 143.679 51.4663V51.9193C144.515 51.9193 145.209 51.7204 145.734 51.2983L145.448 50.9459ZM143.679 51.4663H140.702V51.9193H143.679V51.4663ZM140.51 51.5712L139.363 53.3649L139.747 53.608L140.894 51.8144L140.51 51.5712ZM139.367 53.6135L139.94 54.456L140.317 54.2019L139.744 53.3594L139.367 53.6135ZM140.275 54.5025C140.92 53.9645 141.651 53.6096 142.47 53.4362L142.376 52.9932C141.483 53.1821 140.685 53.57 139.983 54.1553L140.275 54.5025ZM142.469 53.4364C143.302 53.2638 144.104 53.3243 144.882 53.6168L145.043 53.1931C144.183 52.8695 143.292 52.8032 142.376 52.993L142.469 53.4364ZM144.882 53.6168C145.367 53.7997 145.736 54.0954 146 54.5054L146.384 54.2612C146.065 53.7653 145.615 53.4089 145.044 53.1932L144.882 53.6168ZM146.002 54.5089C146.27 54.9085 146.412 55.3478 146.429 55.8314L146.884 55.8159C146.864 55.2486 146.696 54.7277 146.381 54.2577L146.002 54.5089ZM146.429 55.8314C146.445 56.3067 146.315 56.7488 146.031 57.1638L146.407 57.4185C146.743 56.9276 146.903 56.3914 146.884 55.8159L146.429 55.8314ZM146.03 57.1655C145.771 57.5512 145.411 57.7995 144.937 57.9135L145.044 58.3538C145.625 58.2141 146.084 57.9008 146.409 57.4168L146.03 57.1655ZM144.944 57.9119C144.453 58.0129 143.933 57.9972 143.379 57.8596L143.269 58.299C143.881 58.4512 144.471 58.4719 145.036 58.3556L144.944 57.9119ZM143.386 57.8613C142.828 57.7051 142.314 57.4625 141.844 57.1331L141.582 57.5036C142.095 57.8627 142.655 58.1275 143.262 58.2974L143.386 57.8613ZM141.848 57.1365C141.28 56.7168 140.756 56.3597 140.275 56.0656L140.037 56.4513C140.503 56.737 141.017 57.0865 141.577 57.5003L141.848 57.1365ZM140.275 56.0656C139.756 55.7475 139.101 55.5971 138.326 55.5971V56.0501C139.045 56.0501 139.61 56.1897 140.037 56.4513L140.275 56.0656ZM138.326 55.5971C137.639 55.5971 137.045 55.6617 136.547 55.7952L136.665 56.2326C137.113 56.1124 137.666 56.0501 138.326 56.0501V55.5971ZM136.544 55.7958C136.073 55.9271 135.629 56.1055 135.213 56.3314L135.431 56.729C135.816 56.5201 136.228 56.3543 136.667 56.232L136.544 55.7958ZM135.213 56.3314C134.814 56.5479 134.37 56.7827 133.879 57.0357L134.089 57.4378C134.581 57.1837 135.029 56.9473 135.431 56.729L135.213 56.3314ZM133.879 57.0357C133.4 57.283 132.801 57.5326 132.079 57.784L132.229 58.2115C132.964 57.9556 133.585 57.6979 134.089 57.4378L133.879 57.0357ZM132.082 57.7829C130.905 58.1733 130.047 58.152 129.457 57.8031L129.225 58.1924C129.982 58.6406 131 58.6195 132.226 58.2126L132.082 57.7829ZM129.457 57.8031C128.844 57.4404 128.471 56.8923 128.336 56.1373L127.888 56.2166C128.044 57.0921 128.49 57.7579 129.225 58.1924L129.457 57.8031ZM128.336 56.136C128.201 55.4064 128.354 54.8208 128.774 54.3503C129.204 53.869 129.936 53.4836 131.008 53.217L130.897 52.7776C129.784 53.0545 128.95 53.4708 128.434 54.0494C127.907 54.6388 127.732 55.3713 127.888 56.2179L128.336 56.136ZM131.004 53.2179C131.794 53.035 132.479 52.8329 133.056 52.6106L132.891 52.1882C132.339 52.4008 131.677 52.5972 130.901 52.7767L131.004 53.2179ZM133.053 52.6114C133.643 52.3912 134.189 52.1521 134.689 51.8939L134.48 51.4918C133.997 51.7408 133.469 51.9727 132.893 52.1873L133.053 52.6114ZM134.585 51.4663H131.034V51.9193H134.585V51.4663ZM126.701 61.3676C126.701 60.6684 126.897 60.1523 127.263 59.7885L126.941 59.4682C126.469 59.9378 126.246 60.5812 126.246 61.3676H126.701ZM127.263 59.7885C127.625 59.4275 128.169 59.2297 128.931 59.2297V58.7768C128.092 58.7768 127.415 58.9958 126.941 59.4682L127.263 59.7885ZM128.931 59.2297H146.465V58.7768H128.931V59.2297ZM146.465 59.2297C147.229 59.2297 147.748 59.4282 148.072 59.7811L148.408 59.4757C147.967 58.9952 147.303 58.7768 146.465 58.7768V59.2297ZM148.076 59.7849C148.425 60.1483 148.613 60.6657 148.613 61.3676H149.069C149.069 60.584 148.856 59.9418 148.405 59.4718L148.076 59.7849ZM148.613 61.3676C148.613 62.0489 148.426 62.5809 148.069 62.9845L148.411 63.2837C148.855 62.7815 149.069 62.1358 149.069 61.3676H148.613ZM148.066 62.9884C147.74 63.3739 147.223 63.5871 146.465 63.5871V64.04C147.309 64.04 147.975 63.8002 148.415 63.2798L148.066 62.9884ZM146.465 63.5871H139.228V64.04H146.465V63.5871ZM139.228 63.5871C139.075 63.5871 138.929 63.614 138.803 63.6835C138.673 63.7553 138.58 63.8646 138.525 64.0012L138.947 64.1694C138.965 64.1247 138.99 64.0982 139.024 64.0795C139.062 64.0583 139.125 64.04 139.228 64.04V63.5871ZM138.528 63.9933C138.468 64.1269 138.461 64.2707 138.519 64.4093C138.572 64.5394 138.674 64.6444 138.793 64.7305L139.061 64.3642C138.98 64.3052 138.949 64.2608 138.94 64.2368C138.933 64.2215 138.931 64.2068 138.944 64.1773L138.528 63.9933ZM138.788 64.7268C139.005 64.8925 139.256 65.1489 139.541 65.504L139.897 65.2211C139.6 64.8515 139.323 64.5644 139.066 64.3677L138.788 64.7268ZM139.55 65.5136C139.809 65.8019 139.956 66.2379 139.956 66.8573H140.411C140.411 66.1722 140.248 65.6117 139.889 65.2116L139.55 65.5136ZM139.956 66.8573C139.956 67.5647 139.729 68.1517 139.279 68.6325L139.613 68.9411C140.146 68.3711 140.411 67.6717 140.411 66.8573H139.956ZM139.279 68.6325C138.848 69.0934 138.139 69.3485 137.097 69.3485V69.8014C138.204 69.8014 139.061 69.5311 139.613 68.9411L139.279 68.6325ZM137.097 69.3485C136.254 69.3485 135.573 69.1016 135.038 68.619L134.732 68.9546C135.362 69.5229 136.157 69.8014 137.097 69.8014V69.3485ZM135.035 68.6164C134.502 68.1527 134.239 67.5719 134.239 66.8573H133.784C133.784 67.7008 134.103 68.4064 134.735 68.9572L135.035 68.6164ZM134.239 66.8573C134.239 66.3526 134.318 65.9652 134.461 65.6813L134.053 65.4787C133.868 65.847 133.784 66.3111 133.784 66.8573H134.239ZM134.456 65.69C134.628 65.3809 134.812 65.1516 135.004 64.993L134.712 64.6451C134.466 64.8488 134.25 65.1268 134.058 65.47L134.456 65.69ZM135.005 64.9919C135.235 64.798 135.416 64.678 135.551 64.6183L135.366 64.2044C135.173 64.2897 134.954 64.4415 134.711 64.6461L135.005 64.9919ZM135.543 64.6217C135.552 64.6183 135.552 64.6183 135.56 64.615C135.565 64.613 135.571 64.6104 135.576 64.6085C135.587 64.6043 135.582 64.6064 135.592 64.6022C135.6 64.5991 135.599 64.5993 135.607 64.5962C135.62 64.5912 135.609 64.5953 135.622 64.5903C135.629 64.5877 135.619 64.5916 135.625 64.5889C135.626 64.5888 135.626 64.5887 135.626 64.5886C135.627 64.5885 135.627 64.5883 135.627 64.5882C135.628 64.5881 135.628 64.588 135.628 64.5879C135.628 64.5877 135.629 64.5876 135.629 64.5876C135.631 64.5866 135.634 64.5857 135.636 64.5848C135.636 64.5846 135.639 64.5835 135.639 64.5834C135.64 64.5831 135.64 64.583 135.641 64.5827C135.641 64.5826 135.642 64.5825 135.642 64.5824C135.642 64.5822 135.643 64.5821 135.643 64.582C135.645 64.5811 135.647 64.5802 135.65 64.5793C135.652 64.5783 135.649 64.5797 135.651 64.5787C135.653 64.5781 135.652 64.5786 135.653 64.578C135.659 64.5754 135.65 64.5793 135.656 64.5767C135.657 64.5766 135.658 64.5762 135.658 64.5761C135.66 64.5753 135.658 64.5762 135.659 64.5754C135.665 64.5733 135.657 64.5762 135.663 64.5741C135.664 64.5735 135.663 64.5741 135.664 64.5735C135.666 64.5729 135.664 64.5735 135.666 64.5729C135.666 64.5728 135.669 64.5716 135.669 64.5716C135.674 64.5698 135.667 64.5722 135.672 64.5703C135.672 64.5703 135.673 64.5701 135.673 64.5701C135.673 64.5699 135.673 64.5698 135.674 64.5698C135.675 64.5694 135.674 64.5695 135.675 64.5691C135.69 64.5631 135.672 64.5703 135.687 64.5644C135.689 64.5636 135.691 64.5628 135.693 64.562C135.693 64.562 135.694 64.5618 135.694 64.5618C135.694 64.5616 135.694 64.5616 135.694 64.5615C135.695 64.5614 135.696 64.561 135.696 64.5609C135.696 64.5609 135.697 64.5604 135.697 64.5603C135.7 64.5594 135.696 64.5608 135.699 64.5598C135.702 64.5586 135.699 64.5598 135.701 64.5587C135.703 64.5582 135.702 64.5586 135.703 64.5581C135.703 64.5579 135.704 64.5579 135.704 64.5576C135.704 64.5575 135.705 64.5574 135.705 64.5573C135.705 64.5572 135.705 64.5571 135.706 64.557C135.706 64.5569 135.707 64.5567 135.707 64.5565C135.708 64.5561 135.707 64.5564 135.708 64.556C135.709 64.5559 135.709 64.5558 135.709 64.5557C135.709 64.5556 135.709 64.5555 135.71 64.5555C135.719 64.5519 135.711 64.5548 135.72 64.5513C135.723 64.55 135.727 64.5486 135.73 64.5473C135.741 64.5431 135.729 64.5479 135.739 64.5436C135.751 64.539 135.73 64.5474 135.741 64.5427C135.743 64.5422 135.742 64.5424 135.744 64.5419C135.747 64.5405 135.741 64.5428 135.745 64.5414C135.745 64.5412 135.745 64.5412 135.746 64.541C135.746 64.541 135.746 64.5409 135.746 64.541C135.746 64.5409 135.747 64.5407 135.747 64.5406C135.748 64.54 135.747 64.5407 135.748 64.5401C135.748 64.5402 135.748 64.5401 135.748 64.5401C135.748 64.5401 135.749 64.5398 135.749 64.5397C135.749 64.5398 135.749 64.5397 135.749 64.5397C135.749 64.5396 135.75 64.5394 135.75 64.5393C135.75 64.5394 135.75 64.5392 135.75 64.5393C135.75 64.5392 135.751 64.539 135.751 64.5389C135.751 64.539 135.751 64.5388 135.751 64.5389C135.751 64.5388 135.752 64.5386 135.752 64.5385C135.756 64.5368 135.749 64.5397 135.753 64.5381C135.753 64.5381 135.753 64.538 135.753 64.5381C135.753 64.538 135.754 64.5377 135.754 64.5377C135.756 64.5368 135.754 64.5377 135.756 64.5369C135.761 64.5348 135.759 64.5358 135.764 64.5338C135.765 64.5335 135.767 64.5325 135.768 64.5323C135.769 64.5318 135.768 64.5321 135.769 64.5316C135.773 64.5301 135.767 64.5327 135.77 64.5312C135.771 64.5311 135.771 64.531 135.771 64.5309C135.775 64.5295 135.775 64.5296 135.778 64.5282C135.779 64.5279 135.78 64.5274 135.781 64.527C135.783 64.5264 135.781 64.527 135.783 64.5264C135.785 64.5253 135.781 64.5271 135.783 64.5261C135.783 64.5261 135.784 64.5258 135.784 64.5258C135.788 64.5242 135.786 64.5252 135.79 64.5236C135.797 64.5205 135.787 64.5245 135.795 64.5216C135.796 64.521 135.795 64.5216 135.796 64.5211C135.797 64.5205 135.795 64.5213 135.797 64.5206C135.8 64.5193 135.796 64.5211 135.799 64.5197C135.808 64.5163 135.795 64.5216 135.803 64.5182C135.805 64.5176 135.805 64.5173 135.807 64.5168C135.808 64.5164 135.809 64.516 135.81 64.5156C135.818 64.5125 135.804 64.5178 135.812 64.5147C135.814 64.5138 135.812 64.5147 135.814 64.514C135.815 64.5136 135.814 64.5137 135.815 64.5134C135.815 64.5135 135.816 64.5132 135.815 64.5134C135.816 64.5132 135.816 64.5131 135.816 64.513C135.814 64.514 135.819 64.5119 135.816 64.513C135.816 64.513 135.816 64.513 135.732 64.3027C135.647 64.0924 135.647 64.0924 135.647 64.0924C135.647 64.0924 135.647 64.0924 135.647 64.0924C135.646 64.0928 135.647 64.0924 135.646 64.0928C135.646 64.093 135.645 64.0932 135.645 64.0934C135.644 64.0937 135.645 64.0934 135.644 64.0937C135.643 64.0941 135.644 64.0937 135.643 64.0941C135.642 64.0945 135.644 64.0938 135.643 64.0941C135.643 64.0941 135.642 64.0946 135.642 64.0946C135.639 64.0956 135.644 64.0938 135.641 64.0949C135.641 64.0949 135.641 64.095 135.641 64.0951C135.64 64.0951 135.639 64.0956 135.639 64.0956C135.639 64.0958 135.639 64.0956 135.639 64.0956C135.639 64.0958 135.639 64.0958 135.638 64.096C135.638 64.096 135.638 64.0962 135.638 64.0963C135.632 64.0984 135.64 64.0954 135.634 64.0976C135.631 64.099 135.637 64.0967 135.633 64.098C135.632 64.0984 135.634 64.0977 135.633 64.098C135.633 64.098 135.633 64.0983 135.632 64.0983C135.632 64.0984 135.633 64.0982 135.632 64.0983C135.628 64.1 135.636 64.0971 135.631 64.0988C135.63 64.0993 135.631 64.0987 135.63 64.0992C135.623 64.1022 135.633 64.098 135.626 64.101C135.623 64.1021 135.623 64.1019 135.621 64.103C135.62 64.1031 135.621 64.103 135.621 64.103C135.62 64.1031 135.62 64.1033 135.62 64.1033C135.62 64.1034 135.619 64.1036 135.619 64.1036C135.619 64.1036 135.619 64.1036 135.619 64.1036C135.619 64.1036 135.619 64.1038 135.619 64.1039C135.618 64.1039 135.619 64.1038 135.619 64.1039C135.619 64.1039 135.618 64.1041 135.618 64.1041C135.616 64.1049 135.618 64.1039 135.616 64.1047C135.615 64.1051 135.616 64.1049 135.615 64.1052C135.614 64.1055 135.615 64.1054 135.614 64.1056C135.614 64.1056 135.614 64.1055 135.614 64.1056C135.614 64.1056 135.614 64.1058 135.613 64.1059C135.612 64.1064 135.614 64.1056 135.613 64.1062C135.613 64.1062 135.613 64.1062 135.613 64.1062C135.613 64.1062 135.612 64.1064 135.612 64.1065C135.611 64.1067 135.612 64.1065 135.611 64.1068C135.611 64.1068 135.611 64.1067 135.611 64.1068C135.611 64.1069 135.611 64.1071 135.61 64.1071C135.609 64.1078 135.611 64.107 135.609 64.1077C135.606 64.1091 135.606 64.1089 135.602 64.1104C135.595 64.1132 135.602 64.1102 135.595 64.1132C135.594 64.1138 135.589 64.1157 135.587 64.1163C135.586 64.1168 135.58 64.119 135.579 64.1196C135.579 64.1197 135.579 64.1195 135.579 64.1196C135.579 64.1197 135.578 64.12 135.578 64.1201C135.577 64.1206 135.578 64.1199 135.577 64.1204C135.569 64.1234 135.582 64.1184 135.575 64.1214C135.564 64.1257 135.581 64.1188 135.57 64.1231C135.568 64.1241 135.571 64.123 135.568 64.124C135.554 64.1295 135.579 64.1195 135.566 64.1249C135.565 64.125 135.566 64.1249 135.566 64.1249C135.565 64.125 135.565 64.1253 135.564 64.1254C135.564 64.1255 135.565 64.1253 135.564 64.1254C135.564 64.1254 135.563 64.1258 135.563 64.1259C135.562 64.1264 135.563 64.1258 135.562 64.1264C135.562 64.1264 135.561 64.1268 135.561 64.1268C135.555 64.1291 135.557 64.1284 135.551 64.1308C135.549 64.1314 135.542 64.1342 135.541 64.1349C135.54 64.1353 135.539 64.1355 135.538 64.136C135.524 64.1413 135.549 64.1317 135.535 64.137C135.535 64.1371 135.535 64.1372 135.534 64.1373C135.534 64.1374 135.534 64.1375 135.534 64.1376C135.534 64.1377 135.533 64.1378 135.533 64.1379C135.533 64.138 135.533 64.138 135.532 64.1381C135.531 64.1388 135.533 64.138 135.531 64.1387C135.531 64.1388 135.531 64.1389 135.53 64.139C135.53 64.1391 135.53 64.1392 135.53 64.1392C135.526 64.1406 135.522 64.1423 135.518 64.1438C135.509 64.1475 135.516 64.1449 135.506 64.1486C135.506 64.1488 135.505 64.1489 135.505 64.1492C135.504 64.1495 135.504 64.1495 135.503 64.1498C135.495 64.1531 135.508 64.1478 135.5 64.151C135.492 64.1542 135.502 64.1504 135.494 64.1536C135.493 64.1537 135.493 64.1538 135.493 64.1539C135.493 64.154 135.492 64.1541 135.492 64.1542C135.49 64.155 135.492 64.154 135.49 64.1549C135.481 64.1588 135.497 64.1523 135.487 64.1562C135.485 64.1571 135.488 64.1558 135.486 64.1568C135.483 64.1578 135.486 64.1565 135.484 64.1575C135.48 64.1588 135.484 64.1574 135.481 64.1588C135.478 64.1597 135.476 64.1605 135.474 64.1614C135.466 64.1644 135.474 64.1612 135.467 64.1642C135.458 64.1679 135.462 64.166 135.453 64.1698C135.451 64.1707 135.441 64.1747 135.438 64.1757C135.43 64.1787 135.431 64.1786 135.423 64.1817C135.419 64.1832 135.411 64.1864 135.407 64.188C135.403 64.1896 135.403 64.1895 135.399 64.1912C135.397 64.1921 135.397 64.1919 135.395 64.1928C135.395 64.1929 135.394 64.1931 135.394 64.1932C135.394 64.1933 135.393 64.1935 135.393 64.1936C135.391 64.1943 135.393 64.1938 135.391 64.1944C135.391 64.1946 135.39 64.1947 135.39 64.1949C135.39 64.195 135.389 64.1951 135.389 64.1953C135.387 64.1961 135.389 64.1953 135.387 64.1961C135.384 64.197 135.385 64.1968 135.383 64.1977C135.372 64.202 135.391 64.1944 135.381 64.1986C135.368 64.2036 135.391 64.1944 135.378 64.1994C135.378 64.1997 135.377 64.2 135.376 64.2003C135.376 64.2004 135.376 64.2005 135.375 64.2007C135.375 64.2009 135.374 64.2009 135.374 64.201L135.543 64.6217ZM135.926 64.1846L135.626 63.6954L135.237 63.9316L135.538 64.4208L135.926 64.1846ZM135.431 63.5871H128.877V64.04H135.431V63.5871ZM128.877 63.5871C128.14 63.5871 127.607 63.3754 127.242 62.9808L126.907 63.2874C127.38 63.7988 128.048 64.04 128.877 64.04V63.5871ZM127.245 62.9845C126.888 62.5809 126.701 62.0489 126.701 61.3676H126.246C126.246 62.1358 126.459 62.7815 126.903 63.2837L127.245 62.9845Z" fill="#E2E3E5"/>
</svg>
